<svg width="98" height="18" viewBox="0 0 98 18" fill="none" xmlns="http://www.w3.org/2000/svg">
<path d="M80.7422 9.11719C80.7422 6.26562 81.5078 4.03516 83.0391 2.42578C84.5703 0.808594 86.5469 0 88.9688 0C90.5547 0 91.9844 0.378906 93.2578 1.13672C94.5312 1.89453 95.5 2.95312 96.1641 4.3125C96.8359 5.66406 97.1719 7.19922 97.1719 8.91797C97.1719 10.6602 96.8203 12.2188 96.1172 13.5938C95.4141 14.9688 94.418 16.0117 93.1289 16.7227C91.8398 17.4258 90.4492 17.7773 88.957 17.7773C87.3398 17.7773 85.8945 17.3867 84.6211 16.6055C83.3477 15.8242 82.3828 14.7578 81.7266 13.4062C81.0703 12.0547 80.7422 10.625 80.7422 9.11719ZM83.0859 9.15234C83.0859 11.2227 83.6406 12.8555 84.75 14.0508C85.8672 15.2383 87.2656 15.832 88.9453 15.832C90.6562 15.832 92.0625 15.2305 93.1641 14.0273C94.2734 12.8242 94.8281 11.1172 94.8281 8.90625C94.8281 7.50781 94.5898 6.28906 94.1133 5.25C93.6445 4.20312 92.9531 3.39453 92.0391 2.82422C91.1328 2.24609 90.1133 1.95703 88.9805 1.95703C87.3711 1.95703 85.9844 2.51172 84.8203 3.62109C83.6641 4.72266 83.0859 6.56641 83.0859 9.15234Z" fill="black"/>
<path d="M70.793 10.7461V8.73047L78.0703 8.71875V15.0938C76.9531 15.9844 75.8008 16.6562 74.6133 17.1094C73.4258 17.5547 72.207 17.7773 70.957 17.7773C69.2695 17.7773 67.7344 17.418 66.3516 16.6992C64.9766 15.9727 63.9375 14.9258 63.2344 13.5586C62.5312 12.1914 62.1797 10.6641 62.1797 8.97656C62.1797 7.30469 62.5273 5.74609 63.2227 4.30078C63.9258 2.84766 64.9336 1.76953 66.2461 1.06641C67.5586 0.363281 69.0703 0.0117188 70.7812 0.0117188C72.0234 0.0117188 73.1445 0.214844 74.1445 0.621094C75.1523 1.01953 75.9414 1.57812 76.5117 2.29688C77.082 3.01562 77.5156 3.95312 77.8125 5.10938L75.7617 5.67188C75.5039 4.79688 75.1836 4.10938 74.8008 3.60938C74.418 3.10938 73.8711 2.71094 73.1602 2.41406C72.4492 2.10938 71.6602 1.95703 70.793 1.95703C69.7539 1.95703 68.8555 2.11719 68.0977 2.4375C67.3398 2.75 66.7266 3.16406 66.2578 3.67969C65.7969 4.19531 65.4375 4.76172 65.1797 5.37891C64.7422 6.44141 64.5234 7.59375 64.5234 8.83594C64.5234 10.3672 64.7852 11.6484 65.3086 12.6797C65.8398 13.7109 66.6094 14.4766 67.6172 14.9766C68.625 15.4766 69.6953 15.7266 70.8281 15.7266C71.8125 15.7266 72.7734 15.5391 73.7109 15.1641C74.6484 14.7812 75.3594 14.375 75.8438 13.9453V10.7461H70.793Z" fill="black"/>
<path d="M43.3828 9.11719C43.3828 6.26562 44.1484 4.03516 45.6797 2.42578C47.2109 0.808594 49.1875 0 51.6094 0C53.1953 0 54.625 0.378906 55.8984 1.13672C57.1719 1.89453 58.1406 2.95312 58.8047 4.3125C59.4766 5.66406 59.8125 7.19922 59.8125 8.91797C59.8125 10.6602 59.4609 12.2188 58.7578 13.5938C58.0547 14.9688 57.0586 16.0117 55.7695 16.7227C54.4805 17.4258 53.0898 17.7773 51.5977 17.7773C49.9805 17.7773 48.5352 17.3867 47.2617 16.6055C45.9883 15.8242 45.0234 14.7578 44.3672 13.4062C43.7109 12.0547 43.3828 10.625 43.3828 9.11719ZM45.7266 9.15234C45.7266 11.2227 46.2812 12.8555 47.3906 14.0508C48.5078 15.2383 49.9062 15.832 51.5859 15.832C53.2969 15.832 54.7031 15.2305 55.8047 14.0273C56.9141 12.8242 57.4688 11.1172 57.4688 8.90625C57.4688 7.50781 57.2305 6.28906 56.7539 5.25C56.2852 4.20312 55.5938 3.39453 54.6797 2.82422C53.7734 2.24609 52.7539 1.95703 51.6211 1.95703C50.0117 1.95703 48.625 2.51172 47.4609 3.62109C46.3047 4.72266 45.7266 6.56641 45.7266 9.15234Z" fill="black"/>
<path d="M30.6211 17.4844V0.304688H32.8945V15.457H41.3555V17.4844H30.6211Z" fill="black"/>
<path d="M14.6719 17.4844V15.375L23.4727 4.37109C24.0977 3.58984 24.6914 2.91016 25.2539 2.33203H15.668V0.304688H27.9727V2.33203L18.3281 14.25L17.2852 15.457H28.2539V17.4844H14.6719Z" fill="black"/>
<path d="M0 17.4844V15.375L8.80078 4.37109C9.42578 3.58984 10.0195 2.91016 10.582 2.33203H0.996094V0.304688H13.3008V2.33203L3.65625 14.25L2.61328 15.457H13.582V17.4844H0Z" fill="black"/>
</svg>
